<svg width="28" height="28" viewBox="0 0 28 28" fill="none" xmlns="http://www.w3.org/2000/svg">
<path d="M14 0C11.2311 0 8.52431 0.821086 6.22202 2.35943C3.91973 3.89776 2.12532 6.08427 1.06569 8.64243C0.00606598 11.2006 -0.271181 14.0155 0.269012 16.7313C0.809205 19.447 2.14258 21.9416 4.10051 23.8995C6.05845 25.8574 8.55301 27.1908 11.2687 27.731C13.9845 28.2712 16.7994 27.9939 19.3576 26.9343C21.9157 25.8747 24.1022 24.0803 25.6406 21.778C27.1789 19.4757 28 16.7689 28 14C28 12.1615 27.6379 10.341 26.9343 8.64243C26.2308 6.94387 25.1995 5.40052 23.8995 4.1005C22.5995 2.80048 21.0561 1.76925 19.3576 1.06569C17.659 0.362121 15.8385 0 14 0ZM14 25.2C11.7849 25.2 9.61945 24.5431 7.77762 23.3125C5.93579 22.0818 4.50026 20.3326 3.65256 18.2861C2.80485 16.2395 2.58306 13.9876 3.01521 11.815C3.44737 9.6424 4.51406 7.64675 6.08041 6.0804C7.64676 4.51406 9.64241 3.44736 11.815 3.0152C13.9876 2.58305 16.2395 2.80485 18.2861 3.65255C20.3326 4.50025 22.0818 5.93578 23.3125 7.77761C24.5431 9.61944 25.2 11.7848 25.2 14C25.2 16.9704 24.02 19.8192 21.9196 21.9196C19.8192 24.02 16.9704 25.2 14 25.2Z" fill="black"/>
<path d="M17.7941 10.206C17.664 10.0748 17.5091 9.97062 17.3385 9.89954C17.1679 9.82846 16.9849 9.79187 16.8001 9.79187C16.6153 9.79187 16.4323 9.82846 16.2617 9.89954C16.0911 9.97062 15.9363 10.0748 15.8061 10.206L14.0001 12.026L12.1941 10.206C11.9305 9.94236 11.5729 9.79426 11.2001 9.79426C10.8273 9.79426 10.4697 9.94236 10.2061 10.206C9.94248 10.4696 9.79438 10.8272 9.79438 11.2C9.79438 11.5728 9.94248 11.9304 10.2061 12.194L12.0261 14L10.2061 15.806C10.0749 15.9361 9.97074 16.091 9.89966 16.2616C9.82859 16.4322 9.79199 16.6152 9.79199 16.8C9.79199 16.9848 9.82859 17.1678 9.89966 17.3384C9.97074 17.509 10.0749 17.6638 10.2061 17.794C10.3363 17.9252 10.4911 18.0294 10.6617 18.1004C10.8323 18.1715 11.0153 18.2081 11.2001 18.2081C11.3849 18.2081 11.5679 18.1715 11.7385 18.1004C11.9091 18.0294 12.064 17.9252 12.1941 17.794L14.0001 15.974L15.8061 17.794C15.9363 17.9252 16.0911 18.0294 16.2617 18.1004C16.4323 18.1715 16.6153 18.2081 16.8001 18.2081C16.9849 18.2081 17.1679 18.1715 17.3385 18.1004C17.5091 18.0294 17.664 17.9252 17.7941 17.794C17.9253 17.6638 18.0295 17.509 18.1006 17.3384C18.1716 17.1678 18.2082 16.9848 18.2082 16.8C18.2082 16.6152 18.1716 16.4322 18.1006 16.2616C18.0295 16.091 17.9253 15.9361 17.7941 15.806L15.9741 14L17.7941 12.194C17.9253 12.0638 18.0295 11.909 18.1006 11.7384C18.1716 11.5678 18.2082 11.3848 18.2082 11.2C18.2082 11.0152 18.1716 10.8322 18.1006 10.6616C18.0295 10.491 17.9253 10.3361 17.7941 10.206Z" fill="black"/>
</svg>
