<svg width="61" height="61" viewBox="0 0 61 61" fill="none" xmlns="http://www.w3.org/2000/svg">
<circle r="29.5" transform="matrix(-1 0 0 1 30.5 30.5)" stroke="#017BFF" stroke-width="2"/>
<path d="M39 30.9529C39.0017 30.6385 38.9429 30.3269 38.8269 30.0359C38.7108 29.7449 38.5399 29.4802 38.3238 29.257L28.9968 19.7025C28.7794 19.4798 28.5213 19.3031 28.2372 19.1826C27.9532 19.062 27.6487 19 27.3413 19C27.0338 19 26.7294 19.062 26.4453 19.1826C26.1613 19.3031 25.9032 19.4798 25.6857 19.7025C25.4683 19.9252 25.2959 20.1896 25.1782 20.4806C25.0606 20.7716 25 21.0834 25 21.3984C25 21.7134 25.0606 22.0252 25.1782 22.3162C25.2959 22.6072 25.4683 22.8716 25.6857 23.0943L33.4038 30.9529L25.9889 38.8353C25.7504 39.0551 25.5587 39.3228 25.4258 39.6219C25.2929 39.921 25.2217 40.245 25.2166 40.5735C25.2115 40.9021 25.2727 41.2282 25.3963 41.5315C25.5198 41.8347 25.7031 42.1086 25.9347 42.3359C26.1663 42.5633 26.4412 42.7393 26.7422 42.8528C27.0433 42.9664 27.3639 43.0151 27.6841 42.9959C28.0044 42.9768 28.3173 42.8901 28.6033 42.7414C28.8894 42.5927 29.1424 42.3851 29.3466 42.1316L38.3471 32.5771C38.7582 32.1403 38.9916 31.5596 39 30.9529Z" fill="#017BFF"/>
</svg>
