<svg width="61" height="61" viewBox="0 0 61 61" fill="none" xmlns="http://www.w3.org/2000/svg">
<circle cx="30.5" cy="30.5" r="29.5" stroke="#017BFF" stroke-width="2"/>
<path d="M22 30.9529C21.9983 30.6385 22.0571 30.3269 22.1731 30.0359C22.2892 29.7449 22.4601 29.4802 22.6762 29.257L32.0032 19.7025C32.2206 19.4798 32.4787 19.3031 32.7628 19.1826C33.0468 19.062 33.3513 19 33.6587 19C33.9662 19 34.2706 19.062 34.5547 19.1826C34.8387 19.3031 35.0968 19.4798 35.3143 19.7025C35.5317 19.9252 35.7041 20.1896 35.8218 20.4806C35.9394 20.7716 36 21.0834 36 21.3984C36 21.7134 35.9394 22.0252 35.8218 22.3162C35.7041 22.6072 35.5317 22.8716 35.3143 23.0943L27.5962 30.9529L35.0111 38.8353C35.2496 39.0551 35.4413 39.3228 35.5742 39.6219C35.7071 39.921 35.7783 40.245 35.7834 40.5735C35.7885 40.9021 35.7273 41.2282 35.6037 41.5315C35.4802 41.8347 35.2969 42.1086 35.0653 42.3359C34.8337 42.5633 34.5588 42.7393 34.2578 42.8528C33.9567 42.9664 33.6361 43.0151 33.3159 42.9959C32.9956 42.9768 32.6827 42.8901 32.3967 42.7414C32.1106 42.5927 31.8576 42.3851 31.6534 42.1316L22.6529 32.5771C22.2418 32.1403 22.0084 31.5596 22 30.9529Z" fill="#017BFF"/>
</svg>
