<svg width="18" height="18" viewBox="0 0 18 18" fill="none" xmlns="http://www.w3.org/2000/svg">
<path d="M9 0C6.61305 0 4.32387 0.948236 2.63604 2.63611C0.948211 4.32398 0 6.61322 0 9.00023C6.15322e-05 10.1822 0.232914 11.3525 0.685264 12.4444C1.13761 13.5364 1.8006 14.5285 2.63637 15.3642C3.47214 16.1999 4.46433 16.8628 5.55628 17.3151C6.64824 17.7673 7.81857 18.0001 9.00047 18C10.1824 17.9999 11.3527 17.7671 12.4446 17.3147C13.5365 16.8624 14.5286 16.1994 15.3643 15.3636C16.2 14.5278 16.8629 13.5356 17.3151 12.4436C17.7673 11.3516 18.0001 10.1812 18 8.9993C18 4.02948 13.9697 0 9 0ZM9 16.1245C8.06433 16.1245 7.13782 15.9402 6.27338 15.5821C5.40894 15.224 4.62348 14.6992 3.96186 14.0376C3.30025 13.3759 2.77542 12.5905 2.41736 11.726C2.05929 10.8615 1.875 9.93499 1.875 8.9993C1.875 8.0636 2.05929 7.13707 2.41736 6.27261C2.77542 5.40814 3.30025 4.62266 3.96186 3.96103C4.62348 3.2994 5.40894 2.77456 6.27338 2.41648C7.13782 2.05841 8.06433 1.87411 9 1.87411V9.00023L15.3675 5.8164C15.8653 6.80391 16.1247 7.89434 16.125 9.00023C16.1248 10.8898 15.374 12.7019 14.0378 14.0379C12.7016 15.3739 10.8895 16.1245 9 16.1245Z" fill="white"/>
</svg>
